<svg xmlns="http://www.w3.org/2000/svg" width="150" height="49.867" viewBox="0 0 150 49.867"><defs><clipPath id="a"><path fill="#739518" d="M0 11.564a5.469 5.469 0 0 0 2.2 4.354c3.269 2.267 8.079 2.418 11.114-.469.234-.257.467-.469.747-.741 2.8-2.766 4.53-8.012 3.829-12.667L17.47 0c-.794.393-1.308.8-2.335 1.254l-2.572 1.12C9.387 3.779 2.383 5.941.841 8.738A6.518 6.518 0 0 0 0 11.564Z" clip-rule="evenodd"/></clipPath><clipPath id="b"><path fill="#739518" d="M0 524.817h262.409V0H0Z"/></clipPath><clipPath id="c"><path fill="#739518" d="M0 10.476c0 4.852 1.4 10.007 2.522 14.511.28 1.012 3.222 11.065 3.876 12.576.187.408-.047.2.28.333a65.264 65.264 0 0 1-1.214-7.508c-.747-8.042-1.541-17.686 2.288-25.047C9.2 2.605 12.282.095 15.644.095V.004C9.344.004 1.494.367.28 7.516a19.718 19.718 0 0 0-.28 2.96Z" clip-rule="evenodd"/></clipPath><clipPath id="e"><path fill="none" d="M.007 7.811a16.106 16.106 0 0 0 .093 2.57 1.278 1.278 0 0 1 0 .726 3.733 3.733 0 0 0 4.3 2.358 8.6 8.6 0 0 0 2.942-.544c2.1-.982 2.428-2.252 2.335-4.323-.14-2.086-1.448-2.978-1.915-5.018a5.884 5.884 0 0 1-.094-1.617c0-.726.187-.982.187-1.572A3.012 3.012 0 0 0 5.8 2.855C5.24 2.477 4.679.225 3.792-.002a6.788 6.788 0 0 0-.42 3.068c-.42-.121-.747-.756-1.308-1.285a2.476 2.476 0 0 0-2.055-1 5.479 5.479 0 0 1 .327 3.4Z" clip-rule="evenodd"/></clipPath><clipPath id="f"><path fill="none" d="M0 524.817h262.409V0H0Z"/></clipPath><clipPath id="g"><path fill="#739518" d="m0 7.042 6.351-3.6c7.706-3.567 9.947-.272 11.161.045a8.3 8.3 0 0 0-2.475-2.373C10.554-1.456 4.81.736 1.727 4.394A11.775 11.775 0 0 0 0 7.042Z" clip-rule="evenodd"/></clipPath><clipPath id="i"><path fill="#739518" d="M9.433 4.47a1.278 1.278 0 0 0 0-.726 16.109 16.109 0 0 1-.093-2.57A10.311 10.311 0 0 0 2.148.282L0 1.174A15.494 15.494 0 0 1 9.433 4.47Z" clip-rule="evenodd"/></clipPath><clipPath id="k"><path fill="#739518" d="M4.513 11.81c1.681 0 1.495.333 2.148-1.829l1.4-4.444c.14-.423.187-.741.327-1.134l.374-1.043V3.3c.187.71.42 1.421.654 2.147l1.354 4.4c.7 2.343.234 1.965 2.382 1.965.327 0 .373-.257.467-.529l.794-2.177c.28-.816 3.129-8.329 3.129-8.767s-.514-.3-1.588-.3c-.747 0-.607.635-1.121 1.875L12.451 8.55c-.14-.7-.467-1.527-.654-2.192L9.976.327C9.742-.142 9.229.04 7.968.04c-.373 0-.654 1.421-.84 2.011-.327 1.088-2.008 6.016-2.055 6.59-.187-.317-2.2-6.047-2.335-6.53C1.898-.383 2.225.04.31.04c-.794 0 .14 1.738.513 2.857.84 2.449 1.962 5.17 2.756 7.649.093.3.187.559.28.8.14.327.187.464.654.464Z" clip-rule="evenodd"/></clipPath><clipPath id="m"><path fill="none" d="M4.951 10.491c-3.783 0-3.69-3.371-.094-3.749a24.973 24.973 0 0 0 3.969-.514c0 1.8.14 2.253-.84 3.2a4.426 4.426 0 0 1-3.035 1.059Zm-4.3-6.334a4.5 4.5 0 0 0 2.008 0c.467-1.919 1.028-2.373 3.6-2.373 1.167 0 2.568.3 2.568 1.678 0 .907 0 1.466-2.381 1.481-2.428.015-6.445.559-6.445 3.658a3.844 3.844 0 0 0 .373 1.784c1.261 2.176 4.717 2.237 6.865 1.391a17.046 17.046 0 0 0 1.821-1c.14 1.677 3.362 1.587 3.362.892 0-1.753 0-1.058-1.4-1.376v-7.21C10.555.028 7.566-.002 5.278-.002a5.818 5.818 0 0 0-3.362 1.149 3.416 3.416 0 0 0-1.262 3.01Z" clip-rule="evenodd"/></clipPath><clipPath id="o"><path fill="none" d="M4.982 10.532c-3.689 0-3.736-3.22-.14-3.719 1.448-.212 2.8-.242 4.109-.544 0 1.527-.046 2.464-.887 3.174a4.34 4.34 0 0 1-3.082 1.089Zm-4.3-6.923c0 1.013.607.711 2.1.59 0-3.174 4.67-2.494 5.511-1.9a1.973 1.973 0 0 1 .653 1.6c-.093 1.784-3.969.438-7.145 2.011-3.176 1.588-2.008 6.409 2.288 6.409a6.989 6.989 0 0 0 4.95-1.5c.421 1.8 3.5 1.5 3.5.892v-.892c0-.7-1.121-.121-1.4-.575-.187-.272-.094-5.487-.094-6.047 0-1.995-.467-3.174-2.335-3.794-2.335-.771-6.118-.544-7.519 1.633a4.029 4.029 0 0 0-.506 1.572Z" clip-rule="evenodd"/></clipPath><clipPath id="q"><path fill="#739518" d="M5.692 1.785a3.189 3.189 0 0 1 2.62.95 3.564 3.564 0 0 1 .654.922c.421.816.187.862.373 1.285H2.192a3.669 3.669 0 0 1 1.077-2.207 3.444 3.444 0 0 1 2.428-.952Zm-5.7 3.961a6.953 6.953 0 0 0 1.4 4.822c2.055 2.177 6.024 2.237 8.313.544.747-.575 2.662-3.189 1.027-3.189-2.568 0-.7.106-2.335 1.708a3.775 3.775 0 0 1-6.212-2.9H9.47c2.149 0 2.055.212 2.055-1.194 0-3.008-2.1-5.532-5.043-5.532a6.989 6.989 0 0 0-3.549.559A5.681 5.681 0 0 0 0 5.745Z" clip-rule="evenodd"/></clipPath><clipPath id="s"><path fill="#739518" d="M0 .438v15.343c0 .68 1.774.378 2.2.287a70.737 70.737 0 0 0 .093-7.12h7.939a6.162 6.162 0 0 0 .7-.091c0-.953.187-1.89-.28-1.89H2.288V2.024h9.153c.654 0 .374-1.481.28-1.875C10.694-.108 2.334.043.607.043.28.045 0 .136 0 .438Z" clip-rule="evenodd"/></clipPath><clipPath id="u"><path fill="#739518" d="M6.258 10.513a3.919 3.919 0 0 1-4.062-4.066 4.225 4.225 0 0 1 1.121-3.431 3.346 3.346 0 0 1 2.942-1.21 3.657 3.657 0 0 1 2.8 1.21 4.39 4.39 0 0 1 1.074 3.235 4.388 4.388 0 0 1-2.148 3.87 3.861 3.861 0 0 1-1.728.393ZM0 5.665c0 2 .234 3.446 1.681 4.867 1.588 1.557 2.709 1.769 4.9 1.769a5.847 5.847 0 0 0 5.744-5.744 6.461 6.461 0 0 0-.981-3.96 5.769 5.769 0 0 0-1.4-1.466 5.289 5.289 0 0 0-.84-.544C6.904-.441 3.22-.139 1.632 1.736A6.168 6.168 0 0 0 0 5.665Z" clip-rule="evenodd"/></clipPath><clipPath id="w"><path fill="none" d="M0 .611v6.923c0 2.66 1.261 4.565 3.969 4.565a5.529 5.529 0 0 0 3.6-.892 6.776 6.776 0 0 1 .7-.6v1.087a3.922 3.922 0 0 0 1.962 0c.28-1.043.093-9.311.093-11.08 0-.786-.42-.59-1.775-.59-.607 0-.42 2.1-.42 3.068v3.461c.046 2.509-1.074 3.764-3.643 3.764-2.662 0-2.289-2.419-2.289-4.157V2.894c0-3.16.421-2.872-1.821-2.872C.094.022 0 .309 0 .611Z" clip-rule="evenodd"/></clipPath><clipPath id="y"><path fill="#739518" d="M.155.108C-.125 1.182.062 13.38.062 15.542a1.5 1.5 0 0 0 .093.484 3.922 3.922 0 0 0 1.962 0c.28-1.073.093-13.106.093-15.237a3.111 3.111 0 0 0-.093-.68A4.511 4.511 0 0 0 .155.108Z" clip-rule="evenodd"/></clipPath><clipPath id="aa"><path fill="#739518" d="M2.054 1.296C2.054.026 2.381.208.373.208A.362.362 0 0 0 0 .601V11.59c0 .665 1.681.378 2.054.287.187-2.192.094-4.611.094-6.832a2.976 2.976 0 0 1 .327-1.391l.747-1.013a4.529 4.529 0 0 1 2.709-.756c0-2.147.28-1.875-1.074-1.875a4.34 4.34 0 0 0-2.803 1.286Z" clip-rule="evenodd"/></clipPath><clipPath id="ac"><path fill="none" d="M2.135 1.299C2.135.029 2.322.211.36.211c-.513 0-.327 1.753-.327 2.676v8.994a4.491 4.491 0 0 0 2.1 0c0-1.935-.373-6.878.421-8.374 1.261-2.283 3.456-1.013 3.456-1.9C6.01-.252 6.244.02 4.936.02a3.954 3.954 0 0 0-2.801 1.279Z" clip-rule="evenodd"/></clipPath></defs><g clip-path="url(#a)" transform="translate(17.279 27.011)"><g clip-path="url(#b)" transform="translate(-73.461 -235.546)"><path fill="#739518" d="M69.816 231.901h25.331v24.907H69.816Z"/></g></g><g clip-path="url(#c)" transform="translate(10.928 11.97)"><g clip-path="url(#b)" transform="translate(-67.11 -220.505)"><path fill="#739518" d="M63.465 216.86h22.932v45.188H63.465Z"/></g></g><g clip-path="url(#e)" transform="translate(9.333 -.001)"><g clip-path="url(#f)" transform="translate(-65.514 -208.534)"><path fill="#ed184a" d="M61.87 204.889h16.977v20.795H61.87Z"/></g></g><g clip-path="url(#g)" transform="translate(16.812 22.433)"><g clip-path="url(#b)" transform="translate(-72.994 -230.968)"><path fill="#739518" d="M69.349 227.323h24.8v14.334h-24.8Z"/></g></g><g clip-path="url(#i)" transform="translate(0 6.639)"><g clip-path="url(#b)" transform="translate(-56.181 -215.173)"><path fill="#739518" d="M52.537 211.531h16.776v11.759H52.537Z"/></g></g><g clip-path="url(#k)" transform="translate(71.14 21.43)"><g clip-path="url(#b)" transform="translate(-127.322 -229.964)"><path fill="#739518" d="M123.678 226.32h24.832v19.121h-24.832Z"/></g></g><g clip-path="url(#m)" transform="translate(137.577 21.266)"><g clip-path="url(#f)" transform="translate(-193.759 -229.801)"><path fill="#ed184a" d="M190.114 226.157h19.711v19.571h-19.711Z"/></g></g><g clip-path="url(#o)" transform="translate(107.191 21.226)"><g clip-path="url(#f)" transform="translate(-163.373 -229.761)"><path fill="#ed184a" d="M159.728 226.116h19.836v19.6h-19.836Z"/></g></g><g clip-path="url(#q)" transform="translate(88.076 21.266)"><g clip-path="url(#b)" transform="translate(-144.258 -229.8)"><path fill="#739518" d="M140.613 226.156h18.824v19.589h-18.824Z"/></g></g><g clip-path="url(#s)" transform="translate(43.291 17.065)"><g clip-path="url(#b)" transform="translate(-99.472 -225.6)"><path fill="#739518" d="M95.828 221.953h19.151v23.5H95.828Z"/></g></g><g clip-path="url(#u)" transform="translate(59.309 21.244)"><g clip-path="url(#b)" transform="translate(-115.491 -229.779)"><path fill="#739518" d="M111.846 226.134h19.618v19.587h-19.618Z"/></g></g><g clip-path="url(#w)" transform="translate(120.252 21.442)"><g clip-path="url(#f)" transform="translate(-176.434 -229.976)"><path fill="#ed184a" d="M172.789 226.332h17.671v19.388h-17.671Z"/></g></g><g clip-path="url(#y)" transform="translate(55.885 17.107)"><g clip-path="url(#b)" transform="translate(-112.067 -225.642)"><path fill="#739518" d="M108.422 221.998h9.555v23.44h-9.555Z"/></g></g><g clip-path="url(#aa)" transform="translate(100.544 21.256)"><g clip-path="url(#b)" transform="translate(-156.726 -229.791)"><path fill="#739518" d="M153.082 226.146h13.244v19.306h-13.244Z"/></g></g><g clip-path="url(#ac)" transform="translate(132.034 21.253)"><g clip-path="url(#f)" transform="translate(-188.216 -229.788)"><path fill="#ed184a" d="M184.571 226.143h13.316v19.294h-13.316Z"/></g></g></svg>